<svg width="197" height="90" viewBox="0 0 197 90" fill="none" xmlns="http://www.w3.org/2000/svg">
<g clip-path="url(#clip0_1008_49)">
<path d="M15.1768 30.6953C15.1768 26.2514 18.7741 22.6489 23.2116 22.6489H197L165.456 46.788L197 70.9271H15.1768V30.6953Z" fill="#C8D9FF"/>
<path d="M22.9111 22.6489H18.1498V25.331H22.9111V22.6489Z" fill="#C8D9FF"/>
<path d="M133.515 79.3225L130.112 83.334L125.119 83.7408L118.994 78.5297L115.788 82.3089L114.481 81.1976L117.688 77.4182L113.072 73.4912L112.731 69.2973L110.807 71.5649L109.501 70.4536L115.42 63.4765L116.726 64.5878L114.26 67.4949L114.697 72.872L123.812 80.6269L123.824 54.1591L127.227 50.1473L132.221 49.7405L138.375 54.9766L141.581 51.1972L142.887 52.3088L139.681 56.0879L143.397 59.2492L143.738 63.4431L146.031 60.7396L147.338 61.8508L141.049 69.2639L139.742 68.1526L142.209 65.2455L141.772 59.8688L133.528 52.8547L133.515 79.3225Z" fill="#121E6C"/>
<path d="M24.1786 16.0956C23.4704 16.0956 22.8663 16.3042 22.3664 16.7214C21.8664 17.1386 21.4706 17.9313 21.179 19.0996C20.8874 20.226 20.6374 21.8532 20.4291 23.981L16.6795 64.3469C16.5129 66.1827 16.1588 67.9141 15.6172 69.5413C15.0756 71.1684 14.1798 72.4827 12.93 73.484C11.6801 74.527 9.88869 75.0486 7.55564 75.0486C5.01428 75.0486 3.16034 74.381 1.99381 73.0459C0.785626 71.7525 0.327348 70.1462 0.618979 68.227L5.18093 67.5386C4.63933 71.2519 5.51422 73.1085 7.80561 73.1085C8.55552 73.1085 9.15961 72.879 9.61789 72.4201C10.0762 72.0029 10.4511 71.231 10.7428 70.1045C11.076 68.978 11.3469 67.3509 11.5552 65.2231L15.3047 24.8572C15.4714 23.0214 15.8255 21.29 16.3671 19.6628C16.9087 18.0357 17.8044 16.7214 19.0543 15.7201C20.3041 14.677 22.0956 14.1555 24.4286 14.1555C27.0116 14.1555 28.8864 14.8231 30.0529 16.1582C31.2611 17.4515 31.7194 19.0578 31.4278 20.977L26.8033 21.6655C27.0949 19.7045 27.0116 18.286 26.5533 17.4098C26.0951 16.5337 25.3035 16.0956 24.1786 16.0956Z" fill="#121E6C"/>
<path d="M45.6433 54.7749V69.7947H47.1015V70.6292H38.7691V69.7947H40.8522V54.9L36.7485 70.6292H31.8533L27.333 54.8166V69.7947H29.4161V70.6292H24.7292V69.7947H26.3956V54.7749H24.7292V53.9404H31.9783L36.2486 68.8769L40.144 53.9404H47.1015V54.7749H45.6433ZM60.7203 60.2613V68.4805L58.5748 70.6292H50.909L48.7635 68.4805V60.2613L50.909 58.1126H58.5748L60.7203 60.2613ZM53.7628 58.9471V69.7947H55.7209V58.9471H53.7628ZM78.0063 69.7947V70.6292H73.2778L71.5488 68.8977V58.9471H70.0906L68.6325 60.4073V69.7947H69.674V70.6292H62.1749V69.7947H63.8414V58.9471H62.1749V58.1126H66.6952L68.1742 59.5729L69.6324 58.1126H74.4026L76.3399 60.0527V69.7947H78.0063ZM81.3979 70.6292L79.4606 68.6891V60.0527L81.3979 58.1126H89.3969L91.3342 60.0527V63.4739L89.3969 65.4139H84.2517V69.7947H89.0428L90.7926 68.0424L91.4383 68.6891L89.5011 70.6292H81.3979ZM84.2517 58.9471V64.5795H86.5431V58.9471H84.2517ZM106.648 60.0527V73.9043L104.711 75.8444H95.67L93.941 74.1129V71.6722H98.7321V75.01H101.857V68.3762L100.857 69.3775H96.1908L94.2535 67.4374V58.9471H92.587V58.1126H97.0032L98.9404 60.0527V68.5431H100.399L101.857 67.0828V58.9471H100.399V58.1126H104.711L106.648 60.0527Z" fill="#121E6C"/>
<path d="M39.1292 28.8284C39.905 28.8284 40.2927 29.2506 40.2927 30.0949V45.5216C40.2927 45.9945 40.1999 46.3238 40.0145 46.5095C39.8458 46.6952 39.5675 46.7881 39.1798 46.7881C38.1005 46.7881 37.5609 46.1379 37.5609 44.8376V32.3494L29.3655 45.9015C29.2474 46.1042 29.0873 46.3068 28.8849 46.5095C28.6825 46.6952 28.32 46.7881 27.7972 46.7881C27.0215 46.7881 26.6337 46.3659 26.6337 45.5216V30.0949C26.6337 29.6221 26.718 29.2928 26.8866 29.107C27.0721 28.9213 27.3588 28.8284 27.7466 28.8284C28.8259 28.8284 29.3655 29.4785 29.3655 30.7789V43.2671L37.5609 29.715C37.6957 29.4785 37.8561 29.2759 38.0415 29.107C38.2439 28.9213 38.6063 28.8284 39.1292 28.8284ZM55.6272 28.8284C56.403 28.8284 56.7907 29.2506 56.7907 30.0949V45.5216C56.7907 45.9945 56.6979 46.3238 56.5125 46.5095C56.3438 46.6952 56.0655 46.7881 55.6778 46.7881C54.5985 46.7881 54.0589 46.1379 54.0589 44.8376V38.2009H45.8129V45.1416C45.8129 45.7496 45.6781 46.1802 45.4082 46.4335C45.1553 46.6698 44.7675 46.7881 44.2446 46.7881C43.4688 46.7881 43.0811 46.3659 43.0811 45.5216V30.0949C43.0811 29.6221 43.1653 29.2928 43.334 29.107C43.5194 28.9213 43.8063 28.8284 44.1941 28.8284C45.2734 28.8284 45.8129 29.4785 45.8129 30.7789V36.8077H54.0589V30.4749C54.0589 29.8669 54.1854 29.4448 54.4384 29.2083C54.7083 28.955 55.1043 28.8284 55.6272 28.8284ZM66.6351 30.1709V45.2683C66.6351 45.8762 66.5003 46.2815 66.2304 46.4842C65.9774 46.6868 65.5897 46.7881 65.0668 46.7881C64.291 46.7881 63.9033 46.3659 63.9033 45.5216V30.1709H60.1091V31.9694C60.1091 32.5774 59.9826 33.008 59.7297 33.2613C59.4937 33.4976 59.1309 33.616 58.642 33.616C57.9168 33.616 57.5543 33.1937 57.5543 32.3494V29.7656C57.5543 29.3772 57.6808 29.1239 57.9338 29.0057C58.2037 28.8875 58.5831 28.8284 59.072 28.8284H71.4664C71.9553 28.8284 72.3264 28.8875 72.5793 29.0057C72.8492 29.1239 72.984 29.3772 72.984 29.7656V32.3494C72.984 33.1937 72.6216 33.616 71.8964 33.616C71.4241 33.616 71.0616 33.4976 70.8087 33.2613C70.5557 33.008 70.4293 32.5774 70.4293 31.9694V30.1709H66.6351ZM83.9464 33.236C83.4741 33.236 83.1117 33.1177 82.8587 32.8813C82.6058 32.628 82.4793 32.1974 82.4793 31.5895V30.1709H76.4845V36.8077H81.7963C82.0323 36.8077 82.2094 36.8837 82.3275 37.0357C82.4457 37.1707 82.5046 37.3313 82.5046 37.5169C82.5046 37.6859 82.4287 37.8462 82.277 37.9982C82.1421 38.1332 81.9817 38.2009 81.7963 38.2009H76.4845V45.4456H82.8587V44.027C82.8587 43.4191 82.9852 42.9968 83.2381 42.7605C83.4911 42.5072 83.8535 42.3805 84.3258 42.3805C85.051 42.3805 85.4135 42.8028 85.4135 43.6471V45.8509C85.4135 46.2225 85.2787 46.4758 85.0088 46.6108C84.7558 46.7291 84.3847 46.7881 83.8958 46.7881H74.9162C74.1404 46.7881 73.7527 46.3659 73.7527 45.5216V30.0949C73.7527 29.2506 74.1404 28.8284 74.9162 28.8284H83.5164C84.0053 28.8284 84.3764 28.8875 84.6293 29.0057C84.8993 29.1239 85.0341 29.3772 85.0341 29.7656V31.9694C85.0341 32.8137 84.6716 33.236 83.9464 33.236ZM89.3996 45.1416C89.3996 45.7496 89.2648 46.1802 88.9949 46.4335C88.7419 46.6698 88.3542 46.7881 87.8313 46.7881C87.0555 46.7881 86.6678 46.3659 86.6678 45.5216V30.0949C86.6678 29.2506 87.0555 28.8284 87.8313 28.8284H96.1785C96.6675 28.8284 97.0386 28.8875 97.2915 29.0057C97.5614 29.1239 97.6962 29.3772 97.6962 29.7656V32.4761C97.6962 33.3203 97.3338 33.7426 96.6086 33.7426C96.1363 33.7426 95.7738 33.6243 95.5209 33.388C95.2679 33.1347 95.1415 32.704 95.1415 32.0961V30.1709H89.3996V45.1416ZM101.055 39.8221V45.1416C101.055 45.7496 100.92 46.1802 100.65 46.4335C100.397 46.6698 100.009 46.7881 99.4865 46.7881C98.711 46.7881 98.3229 46.3659 98.3229 45.5216V30.0949C98.3229 29.6221 98.4074 29.2928 98.5759 29.107C98.7616 28.9213 99.0481 28.8284 99.4359 28.8284H103.66C104.048 28.8284 104.529 28.8537 105.102 28.9044C105.692 28.9381 106.299 29.0395 106.923 29.2083C107.547 29.3772 108.129 29.6474 108.668 30.0189C109.225 30.3906 109.672 30.9055 110.009 31.5641C110.346 32.2058 110.515 33.0417 110.515 34.0719C110.515 35.1188 110.271 36.0814 109.781 36.9597C109.292 37.8379 108.542 38.5385 107.53 39.0621C106.518 39.5688 105.237 39.8221 103.685 39.8221H101.055ZM101.055 30.1709V38.4795H103.66C104.874 38.4795 105.844 38.1332 106.569 37.441C107.294 36.7487 107.657 35.6255 107.657 34.0719C107.657 32.8897 107.362 31.9441 106.771 31.2348C106.198 30.5256 105.161 30.1709 103.66 30.1709H101.055ZM110.91 45.4456C110.691 46.0365 110.438 46.4082 110.151 46.5602C109.864 46.7121 109.603 46.7881 109.367 46.7881C109.131 46.7881 108.954 46.7205 108.836 46.5855C108.735 46.4505 108.684 46.2899 108.684 46.1042C108.684 45.9015 108.726 45.6906 108.811 45.4709L114.755 29.4363C114.839 29.2337 115.008 29.0817 115.261 28.9804C115.53 28.879 115.826 28.8284 116.146 28.8284C116.483 28.8284 116.804 28.8875 117.107 29.0057C117.427 29.107 117.621 29.2759 117.689 29.5123L123.481 45.5722C123.498 45.6399 123.507 45.7072 123.507 45.7749C123.523 45.8256 123.532 45.8846 123.532 45.9522C123.532 46.1718 123.456 46.3659 123.304 46.5348C123.169 46.7038 122.916 46.7881 122.546 46.7881C122.394 46.7881 122.191 46.7628 121.939 46.7121C121.702 46.6445 121.466 46.5178 121.23 46.3322C120.994 46.1295 120.8 45.8339 120.648 45.4456L119.308 41.9752H112.2L110.91 45.4456ZM115.868 31.8174H115.716L112.605 40.658H118.928L115.868 31.8174ZM136.933 28.8284C137.709 28.8284 138.097 29.2506 138.097 30.0949V45.5216C138.097 45.9945 138.004 46.3238 137.818 46.5095C137.65 46.6952 137.371 46.7881 136.984 46.7881C135.904 46.7881 135.365 46.1379 135.365 44.8376V30.1709H129.421V32.7294C129.421 34.8402 129.345 36.6894 129.193 38.2769C129.058 39.8474 128.797 41.2323 128.409 42.4312C128.274 42.8535 128.072 43.3178 127.802 43.8244C127.532 44.314 127.203 44.787 126.815 45.2429C126.444 45.6989 126.023 46.0705 125.551 46.3575C125.078 46.6445 124.564 46.7881 124.008 46.7881C123.687 46.7881 123.426 46.6445 123.223 46.3575C123.021 46.0705 122.92 45.7579 122.92 45.4203C122.92 45.1163 123.004 44.8966 123.173 44.7616C123.342 44.6097 123.712 44.4407 124.286 44.255C124.876 44.0524 125.365 43.7231 125.753 43.2671C126.158 42.7942 126.47 42.2202 126.689 41.5446C127.06 40.4637 127.271 39.2141 127.321 37.7956C127.389 36.3601 127.422 34.6968 127.422 32.8054V30.0949C127.422 29.6221 127.507 29.2928 127.675 29.107C127.861 28.9213 128.148 28.8284 128.535 28.8284H136.933ZM141.125 38.9608C140.956 38.9608 140.83 38.8595 140.746 38.6568C140.662 38.4372 140.619 38.2009 140.619 37.9476C140.619 37.6943 140.662 37.4663 140.746 37.2636C140.83 37.044 140.956 36.9343 141.125 36.9343H146.437V31.6148C146.437 31.4458 146.538 31.3192 146.741 31.2348C146.96 31.1505 147.196 31.1082 147.449 31.1082C147.702 31.1082 147.929 31.1505 148.132 31.2348C148.351 31.3192 148.461 31.4458 148.461 31.6148V36.9343H153.772C153.941 36.9343 154.068 37.044 154.152 37.2636C154.236 37.4663 154.278 37.6943 154.278 37.9476C154.278 38.2009 154.236 38.4372 154.152 38.6568C154.068 38.8595 153.941 38.9608 153.772 38.9608H148.461V44.2804C148.461 44.4493 148.351 44.576 148.132 44.6603C147.929 44.7447 147.702 44.787 147.449 44.787C147.196 44.787 146.96 44.7447 146.741 44.6603C146.538 44.576 146.437 44.4493 146.437 44.2804V38.9608H141.125Z" fill="#121E6C"/>
</g>
<defs>
<clipPath id="clip0_1008_49">
<rect width="197" height="90" fill="white"/>
</clipPath>
</defs>
</svg>
