<svg width="197" height="90" viewBox="0 0 197 90" fill="none" xmlns="http://www.w3.org/2000/svg">
<g clip-path="url(#clip0_1008_218)">
<path d="M15.1768 30.6953C15.1768 26.2514 18.774 22.6489 23.2115 22.6489H197L165.456 46.788L197 70.9271H15.1768V30.6953Z" fill="#3544A4"/>
<path d="M22.9112 22.6489H18.1499V25.331H22.9112V22.6489Z" fill="#3544A4"/>
<path d="M133.516 79.3227L130.112 83.3343L125.119 83.7411L118.994 78.53L115.788 82.3091L114.482 81.1978L117.688 77.4184L113.072 73.4915L112.731 69.2975L110.808 71.5651L109.501 70.4538L115.42 63.4767L116.726 64.588L114.26 67.4952L114.697 72.8722L123.812 80.6271L123.824 54.1594L127.228 50.1475L132.221 49.7407L138.375 54.9768L141.581 51.1974L142.888 52.309L139.681 56.0881L143.397 59.2494L143.738 63.4434L146.031 60.7398L147.338 61.8511L141.049 69.2642L139.742 68.1529L142.209 65.2458L141.772 59.869L133.528 52.855L133.516 79.3227Z" fill="#C8D9FF"/>
<path d="M24.1784 16.0958C23.4702 16.0958 22.8661 16.3044 22.3661 16.7217C21.8662 17.1389 21.4704 17.9316 21.1788 19.0998C20.8871 20.2263 20.6372 21.8534 20.4289 23.9813L16.6793 64.3472C16.5127 66.1829 16.1585 67.9144 15.6169 69.5415C15.0753 71.1687 14.1796 72.4829 12.9298 73.4842C11.6799 74.5273 9.88846 75.0488 7.55541 75.0488C5.01405 75.0488 3.16011 74.3813 1.99358 73.0462C0.785397 71.7528 0.327119 70.1465 0.618751 68.2273L5.1807 67.5389C4.6391 71.2521 5.51399 73.1087 7.80538 73.1087C8.55529 73.1087 9.15939 72.8793 9.61766 72.4203C10.0759 72.0031 10.4509 71.2313 10.7425 70.1048C11.0758 68.9783 11.3466 67.3511 11.5549 65.2233L15.3045 24.8574C15.4711 23.0217 15.8252 21.2902 16.3668 19.663C16.9084 18.0359 17.8042 16.7217 19.054 15.7203C20.3039 14.6773 22.0953 14.1558 24.4284 14.1558C27.0114 14.1558 28.8862 14.8233 30.0527 16.1584C31.2609 17.4518 31.7192 19.0581 31.4275 20.9773L26.8031 21.6657C27.0947 19.7048 27.0114 18.2862 26.5531 17.4101C26.0948 16.5339 25.3033 16.0958 24.1784 16.0958Z" fill="#C8D9FF"/>
<path d="M45.6431 54.7749V69.7947H47.1013V70.6292H38.769V69.7947H40.8521V54.9L36.7484 70.6292H31.8531L27.3329 54.8166V69.7947H29.4159V70.6292H24.729V69.7947H26.3955V54.7749H24.729V53.9404H31.9781L36.2484 68.8769L40.1438 53.9404H47.1013V54.7749H45.6431ZM60.7202 60.2613V68.4805L58.5746 70.6292H50.9089L48.7633 68.4805V60.2613L50.9089 58.1126H58.5746L60.7202 60.2613ZM53.7627 58.9471V69.7947H55.7208V58.9471H53.7627ZM78.0062 69.7947V70.6292H73.2776L71.5486 68.8977V58.9471H70.0905L68.6323 60.4073V69.7947H69.6739V70.6292H62.1748V69.7947H63.8412V58.9471H62.1748V58.1126H66.6951L68.1741 59.5729L69.6322 58.1126H74.4025L76.3397 60.0527V69.7947H78.0062ZM81.3977 70.6292L79.4605 68.6891V60.0527L81.3977 58.1126H89.3968L91.3341 60.0527V63.4739L89.3968 65.4139H84.2516V69.7947H89.0427L90.7924 68.0424L91.4382 68.6891L89.5009 70.6292H81.3977ZM84.2516 58.9471V64.5795H86.543V58.9471H84.2516ZM106.648 60.0527V73.9043L104.71 75.8444H95.6698L93.9409 74.1129V71.6722H98.732V75.01H101.857V68.3762L100.857 69.3775H96.1906L94.2533 67.4374V58.9471H92.5869V58.1126H97.003L98.9403 60.0527V68.5431H100.398L101.857 67.0828V58.9471H100.398V58.1126H104.71L106.648 60.0527Z" fill="#C8D9FF"/>
<path d="M39.1293 28.8281C39.9051 28.8281 40.2928 29.2503 40.2928 30.0947V45.5213C40.2928 45.9943 40.2 46.3236 40.0146 46.5093C39.8459 46.6949 39.5676 46.7879 39.1799 46.7879C38.1006 46.7879 37.561 46.1376 37.561 44.8374V32.3492L29.3656 45.9013C29.2476 46.104 29.0874 46.3066 28.885 46.5093C28.6826 46.6949 28.3201 46.7879 27.7973 46.7879C27.0216 46.7879 26.6338 46.3656 26.6338 45.5213V30.0947C26.6338 29.6218 26.7181 29.2925 26.8867 29.1068C27.0722 28.921 27.3589 28.8281 27.7467 28.8281C28.826 28.8281 29.3656 29.4783 29.3656 30.7786V43.2669L37.561 29.7147C37.6958 29.4783 37.8562 29.2757 38.0416 29.1068C38.244 28.921 38.6064 28.8281 39.1293 28.8281ZM55.6273 28.8281C56.4031 28.8281 56.7909 29.2503 56.7909 30.0947V45.5213C56.7909 45.9943 56.698 46.3236 56.5126 46.5093C56.3439 46.6949 56.0656 46.7879 55.6779 46.7879C54.5986 46.7879 54.059 46.1376 54.059 44.8374V38.2006H45.813V45.1414C45.813 45.7493 45.6782 46.1799 45.4083 46.4333C45.1554 46.6696 44.7676 46.7879 44.2448 46.7879C43.469 46.7879 43.0812 46.3656 43.0812 45.5213V30.0947C43.0812 29.6218 43.1654 29.2925 43.3341 29.1068C43.5195 28.921 43.8064 28.8281 44.1942 28.8281C45.2735 28.8281 45.813 29.4783 45.813 30.7786V36.8074H54.059V30.4746C54.059 29.8667 54.1855 29.4445 54.4385 29.2081C54.7084 28.9548 55.1045 28.8281 55.6273 28.8281ZM66.6352 30.1707V45.268C66.6352 45.876 66.5004 46.2813 66.2305 46.4839C65.9775 46.6866 65.5898 46.7879 65.0669 46.7879C64.2911 46.7879 63.9034 46.3656 63.9034 45.5213V30.1707H60.1092V31.9692C60.1092 32.5771 59.9827 33.0078 59.7298 33.2611C59.4938 33.4974 59.1311 33.6157 58.6421 33.6157C57.9169 33.6157 57.5545 33.1934 57.5545 32.3492V29.7654C57.5545 29.377 57.6809 29.1237 57.9339 29.0054C58.2038 28.8872 58.5832 28.8281 59.0721 28.8281H71.4665C71.9554 28.8281 72.3265 28.8872 72.5794 29.0054C72.8493 29.1237 72.9841 29.377 72.9841 29.7654V32.3492C72.9841 33.1934 72.6217 33.6157 71.8965 33.6157C71.4242 33.6157 71.0617 33.4974 70.8088 33.2611C70.5559 33.0078 70.4294 32.5771 70.4294 31.9692V30.1707H66.6352ZM83.9465 33.2357C83.4742 33.2357 83.1118 33.1174 82.8588 32.8811C82.6059 32.6278 82.4794 32.1972 82.4794 31.5892V30.1707H76.4846V36.8074H81.7965C82.0324 36.8074 82.2095 36.8834 82.3276 37.0354C82.4458 37.1704 82.5047 37.331 82.5047 37.5167C82.5047 37.6857 82.4288 37.846 82.2771 37.998C82.1423 38.133 81.9818 38.2006 81.7965 38.2006H76.4846V45.4453H82.8588V44.0268C82.8588 43.4189 82.9853 42.9966 83.2382 42.7602C83.4912 42.5069 83.8536 42.3803 84.3259 42.3803C85.0511 42.3803 85.4136 42.8026 85.4136 43.6468V45.8506C85.4136 46.2223 85.2788 46.4756 85.0089 46.6106C84.7559 46.7289 84.3848 46.7879 83.8959 46.7879H74.9163C74.1405 46.7879 73.7528 46.3656 73.7528 45.5213V30.0947C73.7528 29.2503 74.1405 28.8281 74.9163 28.8281H83.5165C84.0054 28.8281 84.3765 28.8872 84.6295 29.0054C84.8994 29.1237 85.0342 29.377 85.0342 29.7654V31.9692C85.0342 32.8135 84.6717 33.2357 83.9465 33.2357ZM89.3997 45.1414C89.3997 45.7493 89.2649 46.1799 88.995 46.4333C88.742 46.6696 88.3543 46.7879 87.8314 46.7879C87.0556 46.7879 86.6679 46.3656 86.6679 45.5213V30.0947C86.6679 29.2503 87.0556 28.8281 87.8314 28.8281H96.1786C96.6676 28.8281 97.0387 28.8872 97.2916 29.0054C97.5615 29.1237 97.6963 29.377 97.6963 29.7654V32.4758C97.6963 33.3201 97.3339 33.7424 96.6087 33.7424C96.1364 33.7424 95.7739 33.6241 95.521 33.3877C95.2681 33.1344 95.1416 32.7038 95.1416 32.0958V30.1707H89.3997V45.1414ZM101.055 39.8218V45.1414C101.055 45.7493 100.92 46.1799 100.65 46.4333C100.397 46.6696 100.009 46.7879 99.4866 46.7879C98.7111 46.7879 98.323 46.3656 98.323 45.5213V30.0947C98.323 29.6218 98.4075 29.2925 98.576 29.1068C98.7617 28.921 99.0482 28.8281 99.436 28.8281H103.66C104.048 28.8281 104.529 28.8535 105.102 28.9041C105.692 28.9379 106.299 29.0392 106.923 29.2081C107.547 29.377 108.129 29.6472 108.669 30.0187C109.225 30.3903 109.672 30.9053 110.009 31.5639C110.347 32.2055 110.515 33.0414 110.515 34.0717C110.515 35.1186 110.271 36.0812 109.781 36.9594C109.293 37.8377 108.542 38.5383 107.53 39.0619C106.518 39.5685 105.237 39.8218 103.685 39.8218H101.055ZM101.055 30.1707V38.4793H103.66C104.874 38.4793 105.844 38.133 106.569 37.4407C107.294 36.7484 107.657 35.6252 107.657 34.0717C107.657 32.8894 107.362 31.9439 106.771 31.2346C106.198 30.5253 105.161 30.1707 103.66 30.1707H101.055ZM110.91 45.4453C110.691 46.0363 110.438 46.4079 110.151 46.5599C109.864 46.7119 109.603 46.7879 109.367 46.7879C109.131 46.7879 108.954 46.7202 108.836 46.5852C108.735 46.4502 108.684 46.2896 108.684 46.104C108.684 45.9013 108.726 45.6903 108.811 45.4707L114.755 29.4361C114.839 29.2334 115.008 29.0814 115.261 28.9801C115.53 28.8788 115.826 28.8281 116.146 28.8281C116.483 28.8281 116.804 28.8872 117.107 29.0054C117.428 29.1068 117.622 29.2757 117.689 29.5121L123.482 45.572C123.498 45.6396 123.507 45.707 123.507 45.7746C123.524 45.8253 123.532 45.8843 123.532 45.952C123.532 46.1716 123.456 46.3656 123.305 46.5346C123.169 46.7036 122.916 46.7879 122.546 46.7879C122.394 46.7879 122.192 46.7626 121.939 46.7119C121.702 46.6442 121.466 46.5176 121.23 46.3319C120.994 46.1293 120.8 45.8337 120.649 45.4453L119.308 41.975H112.2L110.91 45.4453ZM115.868 31.8172H115.716L112.605 40.6578H118.929L115.868 31.8172ZM136.933 28.8281C137.709 28.8281 138.097 29.2503 138.097 30.0947V45.5213C138.097 45.9943 138.004 46.3236 137.819 46.5093C137.65 46.6949 137.372 46.7879 136.984 46.7879C135.905 46.7879 135.365 46.1376 135.365 44.8374V30.1707H129.421V32.7291C129.421 34.8399 129.345 36.6891 129.193 38.2766C129.058 39.8472 128.797 41.232 128.409 42.4309C128.274 42.8532 128.072 43.3175 127.802 43.8241C127.532 44.3138 127.203 44.7867 126.815 45.2427C126.444 45.6987 126.023 46.0703 125.551 46.3573C125.078 46.6442 124.564 46.7879 124.008 46.7879C123.687 46.7879 123.426 46.6442 123.224 46.3573C123.021 46.0703 122.92 45.7577 122.92 45.42C122.92 45.116 123.004 44.8964 123.173 44.7614C123.342 44.6094 123.713 44.4404 124.286 44.2548C124.876 44.0521 125.365 43.7228 125.753 43.2669C126.158 42.7939 126.47 42.2199 126.689 41.5443C127.06 40.4635 127.271 39.2139 127.321 37.7953C127.389 36.3598 127.422 34.6966 127.422 32.8051V30.0947C127.422 29.6218 127.507 29.2925 127.675 29.1068C127.861 28.921 128.148 28.8281 128.535 28.8281H136.933ZM141.125 38.9606C140.957 38.9606 140.83 38.8592 140.746 38.6566C140.662 38.437 140.619 38.2006 140.619 37.9473C140.619 37.694 140.662 37.466 140.746 37.2634C140.83 37.0438 140.957 36.9341 141.125 36.9341H146.437V31.6145C146.437 31.4456 146.538 31.3189 146.741 31.2346C146.96 31.1502 147.196 31.1079 147.449 31.1079C147.702 31.1079 147.93 31.1502 148.132 31.2346C148.351 31.3189 148.461 31.4456 148.461 31.6145V36.9341H153.773C153.941 36.9341 154.068 37.0438 154.152 37.2634C154.236 37.466 154.278 37.694 154.278 37.9473C154.278 38.2006 154.236 38.437 154.152 38.6566C154.068 38.8592 153.941 38.9606 153.773 38.9606H148.461V44.2801C148.461 44.4491 148.351 44.5757 148.132 44.6601C147.93 44.7444 147.702 44.7867 147.449 44.7867C147.196 44.7867 146.96 44.7444 146.741 44.6601C146.538 44.5757 146.437 44.4491 146.437 44.2801V38.9606H141.125Z" fill="#C8D9FF"/>
</g>
<defs>
<clipPath id="clip0_1008_218">
<rect width="197" height="90" fill="white"/>
</clipPath>
</defs>
</svg>
