<svg width="21" height="24" viewBox="0 0 21 24" fill="none" xmlns="http://www.w3.org/2000/svg">
<path d="M8.6482 0.0880761C8.08929 0.212456 7.67164 0.430121 7.27242 0.797042C6.83634 1.20128 6.65208 1.51223 6.45554 2.20254C6.14231 3.29708 6.14845 3.29708 3.32317 3.34683C1.30248 3.38415 1.22878 3.39036 1.01381 3.52096C0.731283 3.70131 0.55931 4.06824 0.608445 4.39162C0.663722 4.70879 0.81727 4.91402 1.14279 5.07571L1.41304 5.21875H10.6013H19.7896L20.0599 5.07571C20.3915 4.9078 20.5512 4.69635 20.5942 4.36675C20.6372 4.03714 20.4407 3.664 20.1274 3.48987C19.9186 3.37171 19.7773 3.35927 17.8181 3.34061C15.0665 3.3033 15.0235 3.29086 14.6734 2.1901C14.3172 1.0458 13.6539 0.411464 12.5237 0.112952C12.1184 0.0134482 11.8481 -0.00520897 10.5461 0.00100994C9.51421 0.00100994 8.91231 0.032105 8.6482 0.0880761ZM12.3579 1.77964C12.9353 2.09059 13.2178 2.77468 12.88 3.04832C12.5913 3.29086 12.2965 3.32196 10.5092 3.32196C8.59293 3.32196 8.2367 3.2722 8.01559 2.98613C7.71463 2.60677 8.11386 1.95378 8.80789 1.6988C8.97987 1.63039 9.39752 1.61795 10.5706 1.63039C12.0201 1.64283 12.1184 1.64904 12.3579 1.77964Z" fill="#121E6C"/>
<path d="M2.75817 6.36914C2.53092 6.46864 2.30981 6.79203 2.30981 7.01591C2.30981 7.17761 5.15966 22.6878 5.26407 23.0982C5.35006 23.4341 5.58345 23.7264 5.87212 23.8756C6.10551 23.9938 6.24064 24 10.9699 24C14.9007 24 15.865 23.9813 16.0247 23.9192C16.3502 23.7761 16.6635 23.3781 16.7372 22.9925C16.9398 21.9788 19.5072 7.19004 19.5072 7.04079C19.5072 6.78581 19.2922 6.46864 19.0465 6.36292C18.7333 6.23232 3.05913 6.23854 2.75817 6.36914ZM11.2156 8.35922C11.3077 8.40897 11.449 8.54579 11.5165 8.65773C11.6455 8.86917 11.6455 8.88161 11.6455 15.1317C11.6455 21.9539 11.6639 21.5932 11.3016 21.8793C11.0866 22.0535 10.7304 22.0535 10.5154 21.8793C10.153 21.5932 10.1715 21.9539 10.1715 15.169C10.1715 9.01221 10.1715 8.9438 10.3004 8.69504C10.4908 8.31568 10.8655 8.17887 11.2156 8.35922ZM6.3819 8.57688C6.51702 8.69504 6.62143 8.86296 6.66443 9.02465C6.75656 9.39779 8.75882 20.9278 8.75882 21.1144C8.75882 21.3756 8.59299 21.6928 8.37802 21.8234C8.13234 21.9726 8.00951 21.9788 7.75769 21.8544C7.3339 21.6492 7.37689 21.8296 6.24678 15.3369C5.66944 12.0222 5.19651 9.26097 5.19651 9.19878C5.19651 8.96868 5.38077 8.60176 5.55274 8.49603C5.81684 8.32812 6.14237 8.35922 6.3819 8.57688ZM16.4301 8.552C16.8231 8.88783 16.86 8.55822 15.6992 15.2312C15.1218 18.5646 14.6059 21.3631 14.5629 21.4502C14.305 21.9539 13.7768 22.0783 13.4205 21.7176C13.267 21.5684 13.2178 21.4564 13.1994 21.2201C13.181 21.0087 13.4697 19.1989 14.1883 15.0757C14.7472 11.8605 15.2324 9.13037 15.2692 8.99977C15.4228 8.45872 16.037 8.21618 16.4301 8.552Z" fill="#121E6C"/>
</svg>
