
<svg width="39" height="35" viewBox="0 0 39 35" fill="none" xmlns="http://www.w3.org/2000/svg">
<path d="M24.5154 30.3225L21.1122 34.334L16.1188 34.7408L9.99365 29.5297L6.78779 33.3089L5.4814 32.1976L8.68756 28.4182L4.07175 24.4912L3.73131 20.2973L1.80744 22.5649L0.501343 21.4536L6.42027 14.4765L7.72636 15.5878L5.26029 18.4949L5.69685 23.872L14.8121 31.6269L14.8243 5.15912L18.2275 1.14727L23.2209 0.740479L29.3749 5.97657L32.5811 2.19717L33.8875 3.30876L30.6813 7.08786L34.397 10.2492L34.7377 14.4431L37.0312 11.7396L38.3375 12.8508L32.0487 20.2639L30.7423 19.1526L33.2087 16.2455L32.7719 10.8688L24.5276 3.85472L24.5154 30.3225Z" fill="#121E6C"/>
</svg>
